<svg xmlns="http://www.w3.org/2000/svg" viewBox="0 0 37.18 37"><defs><style>.cls-1{fill:#e1a208;}</style></defs><g id="obj"><path class="cls-1" d="M26.57,26.86a11.48,11.48,0,0,1-2.49-.43c.11,2.08.2,4.14.29,6.23.06,1.26-.55,1.87-1.81,1.87H4.28a1.59,1.59,0,0,1-1.81-1.85c.17-3.6.35-7.2.51-10.78.15-2.92.28-5.83.41-8.75,0-.23,0-.46.06-.69A1.54,1.54,0,0,1,5,11.09H17.07a11.13,11.13,0,0,1,3.7-4.45,7.08,7.08,0,0,0-1.71-4A7.21,7.21,0,0,0,13.41,0a7.13,7.13,0,0,0-5,2A7.66,7.66,0,0,0,6.05,8.63c-.46,0-.84,0-1.22,0A4,4,0,0,0,1,12.2C.91,13,.9,13.89.85,14.74c-.15,3-.28,5.94-.43,8.92s-.31,6-.42,9.05A4,4,0,0,0,4.16,37H22.67a4.8,4.8,0,0,0,1.07-.11,4,4,0,0,0,3.1-4.18C26.76,30.76,26.67,28.8,26.57,26.86ZM10.51,3.43a4.66,4.66,0,0,1,5.33-.33C18,4.31,18.56,6.28,18.33,8.61H8.52C8.3,6.53,8.74,4.69,10.51,3.43Z"/><path class="cls-1" d="M6.47,13.8a1.23,1.23,0,1,1,2.46,0,1.23,1.23,0,0,1-2.46,0Z"/></g></svg>