<svg width="30" height="31" viewBox="0 0 30 31" fill="none" xmlns="http://www.w3.org/2000/svg">
<path d="M21.6772 16.9584C22.771 16.9584 23.7335 16.3605 24.2293 15.4563L29.4502 5.99172C29.9897 5.02922 29.2897 3.83338 28.1814 3.83338H6.59808L5.22725 0.916718H0.458496V3.83338H3.37516L8.62516 14.9021L6.65641 18.4605C5.59183 20.4146 6.99183 22.7917 9.2085 22.7917H26.7085V19.8751H9.2085L10.8127 16.9584H21.6772ZM7.9835 6.75005H25.7022L21.6772 14.0417H11.4397L7.9835 6.75005ZM9.2085 24.2501C7.60433 24.2501 6.30641 25.5626 6.30641 27.1667C6.30641 28.7709 7.60433 30.0834 9.2085 30.0834C10.8127 30.0834 12.1252 28.7709 12.1252 27.1667C12.1252 25.5626 10.8127 24.2501 9.2085 24.2501ZM23.7918 24.2501C22.1877 24.2501 20.8897 25.5626 20.8897 27.1667C20.8897 28.7709 22.1877 30.0834 23.7918 30.0834C25.396 30.0834 26.7085 28.7709 26.7085 27.1667C26.7085 25.5626 25.396 24.2501 23.7918 24.2501Z" fill="#E1A208"/>
</svg>
