<svg id="Layer_1" data-name="Layer 1" xmlns="http://www.w3.org/2000/svg" xmlns:xlink="http://www.w3.org/1999/xlink" viewBox="0 0 90 14"><defs><style>.cls-1{fill:url(#linear-gradient);}.cls-2{fill:url(#linear-gradient-2);}.cls-3{fill:url(#linear-gradient-3);}.cls-4{fill:url(#linear-gradient-4);}.cls-5{opacity:0.14;}.cls-6{fill:#fff;}</style><linearGradient id="linear-gradient" x1="38.1" y1="-0.2" x2="38.1" y2="16.34" gradientUnits="userSpaceOnUse"><stop offset="0" stop-color="#ff152a"/><stop offset="0.13" stop-color="#f81429"/><stop offset="0.32" stop-color="#e61125"/><stop offset="0.55" stop-color="#c70d1f"/><stop offset="0.79" stop-color="#9e0617"/><stop offset="1" stop-color="#74000f"/></linearGradient><linearGradient id="linear-gradient-2" x1="77.02" y1="-0.2" x2="77.02" y2="16.34" gradientUnits="userSpaceOnUse"><stop offset="0" stop-color="#ff152a"/><stop offset="0.14" stop-color="#f91429"/><stop offset="0.32" stop-color="#e91226"/><stop offset="0.52" stop-color="#cf0e21"/><stop offset="0.74" stop-color="#aa081a"/><stop offset="0.97" stop-color="#7c0110"/><stop offset="1" stop-color="#74000f"/></linearGradient><linearGradient id="linear-gradient-3" x1="80.72" y1="-0.2" x2="80.72" y2="16.34" gradientUnits="userSpaceOnUse"><stop offset="0" stop-color="#ff152a"/><stop offset="0.21" stop-color="#fc1529"/><stop offset="0.38" stop-color="#f21327"/><stop offset="0.53" stop-color="#e11124"/><stop offset="0.68" stop-color="#ca0d20"/><stop offset="0.81" stop-color="#ab081a"/><stop offset="0.94" stop-color="#860313"/><stop offset="1" stop-color="#74000f"/></linearGradient><linearGradient id="linear-gradient-4" x1="84.42" y1="-0.2" x2="84.42" y2="16.34" xlink:href="#linear-gradient-3"/></defs><polygon class="cls-1" points="77 -0.1 71 14.1 -0.8 14.1 -0.8 -0.1 77 -0.1"/><polygon class="cls-2" points="79.3 -0.1 73.3 14.1 74.7 14.1 80.7 -0.1 79.3 -0.1"/><polygon class="cls-3" points="83 -0.1 77 14.1 78.4 14.1 84.4 -0.1 83 -0.1"/><polygon class="cls-4" points="86.7 -0.1 80.7 14.1 82.1 14.1 88.1 -0.1 86.7 -0.1"/><g class="cls-5"><path d="M27.2,4.8l.2-1.4H22.5l-1.3,7.5H23l.5-3h2.8l.3-1.4H23.8l.3-1.7Z"/><path d="M33.8,5.6A2.1,2.1,0,0,0,33.2,4a3,3,0,0,0-2-.6H28.6l-1.3,7.5H29l.5-2.7h1l.8,2.7h1.9l-1-3A3.1,3.1,0,0,0,33.3,7,2.9,2.9,0,0,0,33.8,5.6Zm-1.9.5c0,.2-.2.4-.4.6l-.7.2H29.7l.4-2h1.2a.7.7,0,0,1,.7.6A.9.9,0,0,1,31.9,6.1Z"/><path d="M40.5,4.8l.2-1.4h-5l-1.3,7.5h5l.2-1.4H36.4l.3-1.8h2.8l.2-1.3H36.9l.3-1.6Z"/><path d="M46.6,4.8l.3-1.4h-5l-1.3,7.5h5l.2-1.4H42.6l.3-1.8h2.7l.3-1.3H43.1l.3-1.6Z"/><path d="M51.5,6.9l-1.3-.6c-.6-.2-.8-.5-.8-.8a.9.9,0,0,1,.4-.6,1.2,1.2,0,0,1,.8-.2l.7.2a1.4,1.4,0,0,1,.2.7h1.7A1.9,1.9,0,0,0,52.5,4a2.1,2.1,0,0,0-1.7-.7,3.9,3.9,0,0,0-2.7,1,2.5,2.5,0,0,0-.4,1.1c-.1,1,.5,1.7,1.7,2.2l.8.4a.9.9,0,0,1,.7.9,1,1,0,0,1-.4.5,1,1,0,0,1-.7.2,1.2,1.2,0,0,1-.9-.3,1.1,1.1,0,0,1-.2-.8H46.9a2.5,2.5,0,0,0,.8,1.8l.8.5,1.2.2a4,4,0,0,0,1.5-.3l1-.7a2.5,2.5,0,0,0,.4-1.2A1.9,1.9,0,0,0,51.5,6.9Z"/><path d="M59.2,3.4l-.5,3H56.1l.6-3H54.9l-1.3,7.5h1.8l.5-3.1h2.6l-.6,3.1h1.8L61,3.4Z"/><path d="M62.6,3.4l-1.2,7.5h1.7l1.3-7.5Z"/><path d="M70.7,4.1a2.5,2.5,0,0,0-1.9-.7H66.1l-1.3,7.5h1.7L67,8.3h1.2a7.6,7.6,0,0,0,1.6-.3,3.1,3.1,0,0,0,1.1-.9,2.8,2.8,0,0,0,.4-1.3A2,2,0,0,0,70.7,4.1ZM69.3,6.5a1.2,1.2,0,0,1-1,.5H67.2l.4-2.2h1.2l.5.2a.5.5,0,0,1,.3.5A1.7,1.7,0,0,1,69.3,6.5Z"/></g><path class="cls-6" d="M26.7,4.5l.2-1.4H22.1l-1.3,7.5h1.7l.5-3h2.9l.2-1.4H23.3l.3-1.7Z"/><path class="cls-6" d="M33.3,5.3a1.8,1.8,0,0,0-.6-1.6,3,3,0,0,0-2-.6H28.1l-1.3,7.5h1.8L29,7.9h1l.8,2.7h1.9l-1-3a2.4,2.4,0,0,0,1.1-.8A2.2,2.2,0,0,0,33.3,5.3Zm-1.8.5-.5.6-.7.2h-1l.3-2h1.2c.4,0,.7.2.7.6S31.5,5.6,31.5,5.8Z"/><path class="cls-6" d="M40,4.5l.2-1.4h-5l-1.3,7.5h5l.3-1.4H35.9l.3-1.8H39l.2-1.3H36.5l.2-1.6Z"/><path class="cls-6" d="M46.2,4.5l.2-1.4h-5l-1.3,7.5h5l.2-1.4H42.1l.3-1.8h2.8l.2-1.3H42.6l.3-1.6Z"/><path class="cls-6" d="M51,6.6,49.7,6c-.5-.2-.8-.5-.7-.8a.5.5,0,0,1,.4-.6,1.1,1.1,0,0,1,.8-.2l.6.2a1.4,1.4,0,0,1,.2.7h1.7a2.1,2.1,0,0,0-.6-1.6A2.4,2.4,0,0,0,50.3,3a3.3,3.3,0,0,0-1.5.3,1.8,1.8,0,0,0-1.1.7,2.7,2.7,0,0,0-.5,1.1,2.3,2.3,0,0,0,1.7,2.2l.9.4c.4.2.7.5.6.9a1,1,0,0,1-.4.5l-.7.2a1.2,1.2,0,0,1-.9-.3,1.9,1.9,0,0,1-.2-.8H46.5a2.1,2.1,0,0,0,.7,1.8,1.9,1.9,0,0,0,.9.5l1.1.2,1.5-.3a2.6,2.6,0,0,0,1-.7,1.7,1.7,0,0,0,.4-1.2A1.8,1.8,0,0,0,51,6.6Z"/><path class="cls-6" d="M58.7,3.1l-.5,3H55.7l.5-3H54.4l-1.3,7.5h1.8l.5-3.1H58l-.6,3.1h1.8l1.3-7.5Z"/><path class="cls-6" d="M62.2,3.1l-1.3,7.5h1.7l1.3-7.5Z"/><path class="cls-6" d="M70.2,3.8a2.4,2.4,0,0,0-1.9-.7H65.6l-1.3,7.5h1.8L66.5,8h1.2a4.1,4.1,0,0,0,1.6-.3,2.1,2.1,0,0,0,1.1-.8,2.9,2.9,0,0,0,.5-1.3A2.4,2.4,0,0,0,70.2,3.8ZM68.8,6.2a1.2,1.2,0,0,1-1,.5H66.7l.4-2.2h1.2l.6.2a.8.8,0,0,1,.2.5A1.2,1.2,0,0,1,68.8,6.2Z"/><path class="cls-6" d="M1,5.9c.1-.3.3-.3.6-.3H7.5a.6.6,0,0,1,.6.3.4.4,0,0,1-.4.6H1.6A.6.6,0,0,1,1,6.2Z"/><path class="cls-6" d="M13.4,2.7h2c.2-.1.4.1.5.3l1.2,2.3a4.5,4.5,0,0,0,1,1.4,1.2,1.2,0,0,1,.2.8v2.8a.5.5,0,0,1-.6.6H16.4a1.9,1.9,0,0,1-1.8,1.3A1.7,1.7,0,0,1,12.8,11h-3A1.9,1.9,0,0,1,8,12.3,2.1,2.1,0,0,1,6.1,11H2.9a.6.6,0,0,1-.6-.5c0-.3.2-.5.6-.5H6.1a2,2,0,0,1,.4-.8,2,2,0,0,1,3.3.6c0,.2.1.2.2.2h2.7a2,2,0,0,1,1.9-1.4,2,2,0,0,1,1.8,1.4h1V7.6c0-.1-.1-.2-.1-.3l-.6-.7H13a.5.5,0,0,1-.6-.6V2.8H2.7a.5.5,0,0,1-.4-.5c.1-.2.2-.4.5-.4h10c.4,0,.6.1.6.6Zm2.7,2.8h0l-.9-1.8c0-.1-.1-.1-.2-.1H13.4V5.5ZM14.6,9.4a.9.9,0,0,0-1,1,.9.9,0,0,0,1,.9.9.9,0,0,0,.9-.9A1,1,0,0,0,14.6,9.4Zm-5.7,1a.9.9,0,0,0-.9-1,1,1,0,0,0-1,1,1,1,0,0,0,1,.9A.9.9,0,0,0,8.9,10.4Z"/><path class="cls-6" d="M6.3,3.7H8.4a.5.5,0,0,1,.5.4.5.5,0,0,1-.5.5H2.3c-.2,0-.4,0-.5-.2a.5.5,0,0,1,.4-.7H6.3Z"/><path class="cls-6" d="M5.4,7.5H6.5c.3,0,.6.3.4.6s-.2.3-.4.3H2.3A.5.5,0,0,1,1.8,8a.5.5,0,0,1,.5-.5Z"/></svg>