<svg width="32" height="32" viewBox="0 0 32 32" fill="none" xmlns="http://www.w3.org/2000/svg">
<path d="M22.0754 6C21.1572 5.99944 20.2594 6.27122 19.4957 6.78095C18.7319 7.2907 18.1366 8.0155 17.7848 8.86366C17.433 9.71182 17.3407 10.6453 17.5195 11.546C17.6983 12.4466 18.1402 13.274 18.7894 13.9234C19.4385 14.5729 20.2656 15.0153 21.1662 15.1945C22.0667 15.3738 23.0002 15.2821 23.8486 14.9307C24.697 14.5794 25.4221 13.9844 25.9322 13.2209C26.4423 12.4574 26.7146 11.5598 26.7146 10.6416C26.7149 10.0321 26.5951 9.42862 26.3621 8.8655C26.1291 8.30238 25.7874 7.79069 25.3566 7.35965C24.9258 6.9286 24.4143 6.58666 23.8513 6.35337C23.2883 6.12008 22.6849 6 22.0754 6ZM22.0754 12.6582C21.6764 12.6578 21.2865 12.5392 20.9549 12.3173C20.6233 12.0953 20.365 11.78 20.2125 11.4112C20.0601 11.0424 20.0205 10.6367 20.0986 10.2454C20.1767 9.85414 20.3691 9.49478 20.6515 9.21286C20.9338 8.93086 21.2934 8.73894 21.6849 8.66134C22.0763 8.58382 22.4819 8.62398 22.8505 8.77694C23.219 8.92982 23.534 9.18862 23.7554 9.52054C23.977 9.85246 24.0951 10.2425 24.0949 10.6416C24.094 11.1765 23.8811 11.6891 23.5028 12.0671C23.1245 12.4452 22.6117 12.6577 22.0769 12.6582" fill="#AD2070"/>
<path d="M8.11748 15.2836V9.26536C8.11748 8.91232 8.4286 8.62256 8.8122 8.62256C9.19572 8.62256 9.4994 8.90984 9.50332 9.26184V15.2836H12.335V9.26536V9.26144C12.335 8.90984 12.6454 8.62216 13.0268 8.62216C13.4083 8.62216 13.7191 8.912 13.7191 9.26504V15.2836H16.5487V9.26536C16.5487 7.46611 14.9692 6.00037 13.0268 6.00037C12.2753 5.99775 11.5409 6.22531 10.9225 6.65244C10.3016 6.22588 9.56556 5.99833 8.8122 6.00001C6.87051 6.00001 5.29004 7.46576 5.29004 9.26504V15.2836H8.11748Z" fill="#AD2070"/>
<path d="M22.076 16.7119C21.1581 16.7115 20.2607 16.9833 19.4971 17.4929C18.7337 18.0025 18.1385 18.727 17.7868 19.5749C17.4351 20.4228 17.3427 21.3559 17.5213 22.2562C17.6999 23.1566 18.1415 23.9838 18.7903 24.6333C19.439 25.2827 20.2657 25.7251 21.1659 25.9047C22.066 26.0843 22.9993 25.993 23.8475 25.6422C24.6958 25.2914 25.421 24.6969 25.9314 23.934C26.4418 23.171 26.7145 22.2739 26.7151 21.356C26.7158 20.7464 26.5963 20.1426 26.3634 19.5792C26.1306 19.0158 25.7889 18.5038 25.3581 18.0724C24.9272 17.6411 24.4156 17.299 23.8524 17.0655C23.2893 16.8321 22.6856 16.7119 22.076 16.7119ZM22.076 23.3754C21.6761 23.3758 21.2851 23.2575 20.9524 23.0355C20.6197 22.8136 20.3604 22.4979 20.2072 22.1286C20.054 21.7591 20.0138 21.3526 20.0917 20.9603C20.1697 20.5681 20.3622 20.2078 20.645 19.925C20.9278 19.6422 21.2881 19.4497 21.6803 19.3718C22.0726 19.2938 22.4791 19.334 22.8485 19.4872C23.2179 19.6404 23.5335 19.8998 23.7555 20.2324C23.9775 20.565 24.0958 20.9561 24.0955 21.356C24.0946 21.8911 23.8818 22.4041 23.5035 22.7826C23.1253 23.161 22.6125 23.3742 22.0774 23.3754" fill="#AD2070"/>
<path d="M8.11699 25.9958V19.9805C8.11699 19.6253 8.42811 19.3369 8.81171 19.3369C9.19531 19.3369 9.49899 19.6235 9.50283 19.9761V25.9958H12.3346V19.9805C12.3346 19.9805 12.3346 19.9805 12.3346 19.9776C12.3346 19.6225 12.645 19.3383 13.0264 19.3383C13.4079 19.3383 13.7186 19.6249 13.7186 19.9818V25.9958H16.5482V19.9805C16.5482 18.1805 14.9688 16.7129 13.0264 16.7129C12.2744 16.709 11.5394 16.9375 10.9221 17.3672C10.3026 16.9385 9.56651 16.7101 8.81315 16.7129C6.87148 16.7129 5.29102 18.1801 5.29102 19.9805V25.9958H8.11699Z" fill="#AD2070"/>
</svg>
