<svg width="32" height="32" viewBox="0 0 32 32" fill="none" xmlns="http://www.w3.org/2000/svg">
<path d="M2.18 6C3.055 6 3.765 6.71 3.765 7.585L3.764 7.882H11.664C12.748 7.882 13.273 8.188 14.089 9.222L14.236 9.412L15.846 11.647H30.262C31.222 11.647 32 12.44 32 13.419V24.934C32 25.913 31.222 26.706 30.262 26.706H11.15C10.19 26.706 9.413 25.913 9.413 24.934L9.412 19.683H8.032C7.204 19.683 6.415 19.306 5.682 18.69C5.516 18.55 5.361 18.405 5.217 18.257L4.967 17.986L4.907 17.916H3.731C3.581 18.636 2.943 19.176 2.18 19.176H1.585C0.71 19.176 0 18.466 0 17.591V7.585C0 6.71 0.71 6 1.585 6H2.18ZM30.196 12.588H12.167L15.142 15.296C15.929 16.012 15.477 16.962 14.468 17.451C13.592 17.876 12.517 17.889 11.662 17.359L11.494 17.246L10.352 16.207V24.887C10.352 25.371 10.739 25.765 11.216 25.765H30.196C30.673 25.765 31.059 25.371 31.059 24.886V13.466C31.059 12.982 30.673 12.588 30.196 12.588ZM3.764 16.975H5.37L5.542 17.208L5.643 17.33L5.713 17.41C5.883 17.6 6.075 17.792 6.286 17.97C6.808 18.408 7.344 18.683 7.86 18.734L8.03 18.742H9.411V16.114H8.785C7.745 16.114 7.007 15.756 6.566 15.135L6.476 14.998C6.237 14.603 6.142 14.205 6.122 13.813L6.118 13.645H7.058C7.058 13.935 7.115 14.236 7.282 14.511C7.512 14.893 7.917 15.131 8.594 15.168L8.784 15.173H10.614L12.088 16.517C12.621 16.905 13.415 16.916 14.058 16.604C14.558 16.361 14.666 16.134 14.509 15.992L11.289 13.062L11.293 11.912V11.647L14.739 11.649L13.529 9.971C12.795 9.008 12.5 8.814 11.664 8.814H3.764V16.975ZM2.18 6.793H1.585C1.181 6.793 0.848 7.095 0.799 7.486L0.793 7.586V17.59C0.793 17.994 1.095 18.328 1.486 18.377L1.586 18.383H2.18C2.584 18.383 2.917 18.081 2.966 17.69L2.972 17.59V7.585C2.972 7.181 2.67 6.848 2.279 6.799L2.179 6.793H2.18Z" fill="#242424"/>
<path d="M20.706 23.8817C23.3051 23.8817 25.412 21.7748 25.412 19.1757C25.412 16.5767 23.3051 14.4697 20.706 14.4697C18.1069 14.4697 16 16.5767 16 19.1757C16 21.7748 18.1069 23.8817 20.706 23.8817Z" fill="#E1A208"/>
<path d="M21.5944 19.0225L20.0504 18.6505C19.8204 18.5955 19.6604 18.4165 19.6604 18.2165C19.6604 17.9665 19.9004 17.7645 20.1964 17.7645H21.1614C21.3764 17.7645 21.5814 17.8215 21.7524 17.9265C21.8314 17.9735 21.9424 17.9585 22.0104 17.9005L22.3084 17.6485C22.4004 17.5715 22.3854 17.4455 22.2824 17.3785C21.9624 17.1715 21.5724 17.0585 21.1614 17.0585H21.1244V16.5285C21.1244 16.4325 21.0314 16.3525 20.9144 16.3525H20.4964C20.3814 16.3525 20.2874 16.4315 20.2874 16.5285V17.0585H20.1954C19.3954 17.0585 18.7534 17.6385 18.8294 18.3265C18.8834 18.8155 19.3274 19.2115 19.8874 19.3465L21.3624 19.7015C21.5914 19.7565 21.7524 19.9355 21.7524 20.1355C21.7524 20.3855 21.5114 20.5875 21.2164 20.5875H20.2514C20.0364 20.5875 19.8314 20.5315 19.6594 20.4265C19.5814 20.3785 19.4714 20.3945 19.4024 20.4515L19.1044 20.7035C19.0124 20.7805 19.0274 20.9065 19.1294 20.9735C19.4504 21.1815 19.8404 21.2935 20.2514 21.2935H20.2874V21.8235C20.2874 21.9205 20.3814 21.9995 20.4974 21.9995H20.9154C21.0304 21.9995 21.1244 21.9205 21.1244 21.8235V21.2935H21.1594C21.7564 21.2935 22.3194 20.9935 22.5114 20.5175C22.7774 19.8635 22.3214 19.1985 21.5934 19.0225H21.5944Z" fill="white"/>
</svg>
