<svg width="90" height="15" viewBox="0 0 90 15" fill="none" xmlns="http://www.w3.org/2000/svg">
<path d="M52.3789 5.6682C52.2817 5.35125 52.0153 5.12615 51.7001 5.09617L47.4183 4.68596L45.7251 0.504671C45.6003 0.198236 45.3159 -0.00012207 45 -0.00012207C44.6841 -0.00012207 44.3998 0.198236 44.275 0.505387L42.5818 4.68596L38.2993 5.09617C37.9847 5.12686 37.7189 5.35125 37.6212 5.6682C37.5235 5.98514 37.6137 6.33278 37.8518 6.55191L41.0883 9.54675L40.1339 13.9824C40.0641 14.3085 40.1841 14.6457 40.4406 14.8413C40.5784 14.9464 40.7397 14.9999 40.9024 14.9999C41.0426 14.9999 41.1817 14.96 41.3066 14.8812L45 12.5521L48.6922 14.8812C48.9623 15.0527 49.3029 15.037 49.5588 14.8413C49.8154 14.6451 49.9353 14.3078 49.8655 13.9824L48.9111 9.54675L52.1476 6.55251C52.3857 6.33278 52.4765 5.98574 52.3789 5.6682Z" fill="#3C8143" fill-opacity="0.3"/>
<path d="M33.9609 5.66832C33.8627 5.35138 33.5933 5.12627 33.2746 5.09629L28.9451 4.68608L27.2332 0.504793C27.107 0.198358 26.8195 0 26.5001 0C26.1806 0 25.8932 0.198358 25.7669 0.505509L24.055 4.68608L19.7249 5.09629C19.4067 5.12698 19.138 5.35138 19.0393 5.66832C18.9405 5.98526 19.0317 6.3329 19.2724 6.55204L22.5449 9.54688L21.5799 13.9825C21.5093 14.3087 21.6306 14.6458 21.8899 14.8414C22.0293 14.9465 22.1924 15 22.3569 15C22.4987 15 22.6393 14.9601 22.7655 14.8813L26.5001 12.5522L30.2332 14.8813C30.5064 15.0528 30.8508 15.0371 31.1095 14.8414C31.369 14.6452 31.4901 14.308 31.4195 13.9825L30.4545 9.54688L33.7271 6.55263C33.9677 6.3329 34.0596 5.98586 33.9609 5.66832Z" fill="#3C8143" fill-opacity="0.3"/>
<path d="M71.1701 5.6682C71.073 5.35125 70.8066 5.12615 70.4913 5.09617L66.2095 4.68596L64.5164 0.504671C64.3915 0.198236 64.1072 -0.00012207 63.7913 -0.00012207C63.4754 -0.00012207 63.1911 0.198236 63.0662 0.505387L61.3731 4.68596L57.0906 5.09617C56.7759 5.12686 56.5102 5.35125 56.4125 5.6682C56.3148 5.98514 56.405 6.33278 56.643 6.55191L59.8796 9.54675L58.9252 13.9824C58.8554 14.3085 58.9753 14.6457 59.2318 14.8413C59.3697 14.9464 59.531 14.9999 59.6936 14.9999C59.8339 14.9999 59.973 14.96 60.0978 14.8812L63.7913 12.5521L67.4834 14.8812C67.7536 15.0527 68.0942 15.037 68.3501 14.8413C68.6067 14.6451 68.7265 14.3078 68.6567 13.9824L67.7023 9.54675L70.9389 6.55251C71.1769 6.33278 71.2678 5.98574 71.1701 5.6682Z" fill="#3C8143" fill-opacity="0.3"/>
<path d="M89.9613 5.6682C89.8641 5.35125 89.5977 5.12615 89.2825 5.09617L85.0007 4.68596L83.3075 0.504671C83.1827 0.198236 82.8983 -0.00012207 82.5824 -0.00012207C82.2665 -0.00012207 81.9822 0.198236 81.8574 0.505387L80.1642 4.68596L75.8817 5.09617C75.5671 5.12686 75.3013 5.35125 75.2036 5.6682C75.1059 5.98514 75.1961 6.33278 75.4342 6.55191L78.6707 9.54675L77.7163 13.9824C77.6465 14.3085 77.7665 14.6457 78.023 14.8413C78.1608 14.9464 78.3221 14.9999 78.4848 14.9999C78.625 14.9999 78.7641 14.96 78.889 14.8812L82.5824 12.5521L86.2746 14.8812C86.5447 15.0527 86.8853 15.037 87.1412 14.8413C87.3978 14.6451 87.5177 14.3078 87.4478 13.9824L86.4935 9.54675L89.73 6.55251C89.968 6.33278 90.0589 5.98574 89.9613 5.6682Z" fill="#3C8143" fill-opacity="0.3"/>
<path d="M14.9609 5.66832C14.8627 5.35138 14.5933 5.12627 14.2745 5.09629L9.94515 4.68608L8.23319 0.504793C8.10695 0.198358 7.81947 0 7.50006 0C7.18065 0 6.89317 0.198358 6.76693 0.505509L5.05497 4.68608L0.724884 5.09629C0.406731 5.12698 0.138017 5.35138 0.0392523 5.66832C-0.0595126 5.98526 0.031699 6.3329 0.272374 6.55204L3.54489 9.54688L2.5799 13.9825C2.50929 14.3087 2.6306 14.6458 2.88993 14.8414C3.02932 14.9465 3.1924 15 3.35686 15C3.49865 15 3.63931 14.9601 3.76554 14.8813L7.50006 12.5522L11.2332 14.8813C11.5064 15.0528 11.8507 15.0371 12.1095 14.8414C12.3689 14.6452 12.4901 14.308 12.4195 13.9825L11.4545 9.54688L14.7271 6.55263C14.9677 6.3329 15.0596 5.98586 14.9609 5.66832Z" fill="#3C8143" fill-opacity="0.3"/>
<mask id="mask0" style="mask-type:alpha" maskUnits="userSpaceOnUse" x="0" y="0" width="15" height="15">
<path d="M14.9609 5.66832C14.8627 5.35138 14.5933 5.12627 14.2745 5.09629L9.94515 4.68608L8.23319 0.504793C8.10695 0.198358 7.81947 0 7.50006 0C7.18065 0 6.89317 0.198358 6.76693 0.505509L5.05497 4.68608L0.724884 5.09629C0.406731 5.12698 0.138017 5.35138 0.0392523 5.66832C-0.0595126 5.98526 0.031699 6.3329 0.272374 6.55204L3.54489 9.54688L2.5799 13.9825C2.50929 14.3087 2.6306 14.6458 2.88993 14.8414C3.02932 14.9465 3.1924 15 3.35686 15C3.49865 15 3.63931 14.9601 3.76554 14.8813L7.50006 12.5522L11.2332 14.8813C11.5064 15.0528 11.8507 15.0371 12.1095 14.8414C12.3689 14.6452 12.4901 14.308 12.4195 13.9825L11.4545 9.54688L14.7271 6.55263C14.9677 6.3329 15.0596 5.98586 14.9609 5.66832Z" fill="#FFC107"/>
</mask>
<g mask="url(#mask0)">
<rect x="-0.5" width="8" height="15" fill="#FFC107"/>
</g>
</svg>
