<svg width="90" height="15" viewBox="0 0 90 15" fill="none" xmlns="http://www.w3.org/2000/svg">
<path d="M14.9609 5.66832C14.8627 5.35138 14.5933 5.12627 14.2745 5.09629L9.94515 4.68608L8.23319 0.504793C8.10695 0.198358 7.81947 0 7.50006 0C7.18065 0 6.89317 0.198358 6.76693 0.505509L5.05497 4.68608L0.724884 5.09629C0.406731 5.12698 0.138017 5.35138 0.0392523 5.66832C-0.0595126 5.98526 0.031699 6.3329 0.272374 6.55204L3.54489 9.54688L2.5799 13.9825C2.50929 14.3087 2.6306 14.6458 2.88993 14.8414C3.02932 14.9465 3.1924 15 3.35686 15C3.49865 15 3.63931 14.9601 3.76554 14.8813L7.50006 12.5522L11.2332 14.8813C11.5064 15.0528 11.8507 15.0371 12.1095 14.8414C12.3689 14.6452 12.4901 14.308 12.4195 13.9825L11.4545 9.54688L14.7271 6.55263C14.9677 6.3329 15.0596 5.98586 14.9609 5.66832Z" fill="#FFC107"/>
<path d="M33.9609 5.66832C33.8627 5.35138 33.5933 5.12627 33.2745 5.09629L28.9451 4.68608L27.2332 0.504793C27.107 0.198358 26.8195 0 26.5001 0C26.1806 0 25.8932 0.198358 25.7669 0.505509L24.055 4.68608L19.7249 5.09629C19.4067 5.12698 19.138 5.35138 19.0393 5.66832C18.9405 5.98526 19.0317 6.3329 19.2724 6.55204L22.5449 9.54688L21.5799 13.9825C21.5093 14.3087 21.6306 14.6458 21.8899 14.8414C22.0293 14.9465 22.1924 15 22.3569 15C22.4987 15 22.6393 14.9601 22.7655 14.8813L26.5001 12.5522L30.2332 14.8813C30.5064 15.0528 30.8507 15.0371 31.1095 14.8414C31.3689 14.6452 31.4901 14.308 31.4195 13.9825L30.4545 9.54688L33.7271 6.55263C33.9677 6.3329 34.0596 5.98586 33.9609 5.66832Z" fill="#FFC107"/>
<path d="M52.9609 5.66832C52.8627 5.35138 52.5933 5.12627 52.2745 5.09629L47.9451 4.68608L46.2332 0.504793C46.107 0.198358 45.8195 0 45.5001 0C45.1806 0 44.8932 0.198358 44.7669 0.505509L43.055 4.68608L38.7249 5.09629C38.4067 5.12698 38.138 5.35138 38.0393 5.66832C37.9405 5.98526 38.0317 6.3329 38.2724 6.55204L41.5449 9.54688L40.5799 13.9825C40.5093 14.3087 40.6306 14.6458 40.8899 14.8414C41.0293 14.9465 41.1924 15 41.3569 15C41.4987 15 41.6393 14.9601 41.7655 14.8813L45.5001 12.5522L49.2332 14.8813C49.5064 15.0528 49.8507 15.0371 50.1095 14.8414C50.3689 14.6452 50.4901 14.308 50.4195 13.9825L49.4545 9.54688L52.7271 6.55263C52.9677 6.3329 53.0596 5.98586 52.9609 5.66832Z" fill="#FFC107"/>
<path d="M70.9609 5.66832C70.8627 5.35138 70.5933 5.12627 70.2745 5.09629L65.9451 4.68608L64.2332 0.504793C64.107 0.198358 63.8195 0 63.5001 0C63.1806 0 62.8932 0.198358 62.7669 0.505509L61.055 4.68608L56.7249 5.09629C56.4067 5.12698 56.138 5.35138 56.0393 5.66832C55.9405 5.98526 56.0317 6.3329 56.2724 6.55204L59.5449 9.54688L58.5799 13.9825C58.5093 14.3087 58.6306 14.6458 58.8899 14.8414C59.0293 14.9465 59.1924 15 59.3569 15C59.4987 15 59.6393 14.9601 59.7655 14.8813L63.5001 12.5522L67.2332 14.8813C67.5064 15.0528 67.8507 15.0371 68.1095 14.8414C68.3689 14.6452 68.4901 14.308 68.4195 13.9825L67.4545 9.54688L70.7271 6.55263C70.9677 6.3329 71.0596 5.98586 70.9609 5.66832Z" fill="#FFC107"/>
<path d="M89.9609 5.66844C89.8627 5.3515 89.5933 5.12639 89.2745 5.09642L84.9451 4.6862L83.2332 0.504915C83.107 0.19848 82.8195 0.00012207 82.5001 0.00012207C82.1806 0.00012207 81.8932 0.19848 81.7669 0.505631L80.055 4.6862L75.7249 5.09642C75.4067 5.12711 75.138 5.3515 75.0393 5.66844C74.9405 5.98539 75.0317 6.33302 75.2724 6.55216L78.5449 9.547L77.5799 13.9827C77.5093 14.3088 77.6306 14.6459 77.8899 14.8415C78.0293 14.9466 78.1924 15.0001 78.3569 15.0001C78.4987 15.0001 78.6393 14.9602 78.7655 14.8814L82.5001 12.5523L86.2332 14.8814C86.5064 15.0529 86.8507 15.0373 87.1095 14.8415C87.3689 14.6453 87.4901 14.3081 87.4195 13.9827L86.4545 9.547L89.7271 6.55275C89.9677 6.33302 90.0596 5.98598 89.9609 5.66844Z" fill="#3C8143" fill-opacity="0.3"/>
<mask id="mask0" style="mask-type:alpha" maskUnits="userSpaceOnUse" x="75" y="0" width="15" height="16">
<path d="M89.9609 5.66844C89.8627 5.3515 89.5933 5.12639 89.2745 5.09642L84.9451 4.6862L83.2332 0.504915C83.107 0.19848 82.8195 0.00012207 82.5001 0.00012207C82.1806 0.00012207 81.8932 0.19848 81.7669 0.505631L80.055 4.6862L75.7249 5.09642C75.4067 5.12711 75.138 5.3515 75.0393 5.66844C74.9405 5.98539 75.0317 6.33302 75.2724 6.55216L78.5449 9.547L77.5799 13.9827C77.5093 14.3088 77.6306 14.6459 77.8899 14.8415C78.0293 14.9466 78.1924 15.0001 78.3569 15.0001C78.4987 15.0001 78.6393 14.9602 78.7655 14.8814L82.5001 12.5523L86.2332 14.8814C86.5064 15.0529 86.8507 15.0373 87.1095 14.8415C87.3689 14.6453 87.4901 14.3081 87.4195 13.9827L86.4545 9.547L89.7271 6.55275C89.9677 6.33302 90.0596 5.98598 89.9609 5.66844Z" fill="#FFC107"/>
</mask>
<g mask="url(#mask0)">
<rect x="74.5" y="0.00012207" width="8" height="15" fill="#FFC107"/>
</g>
</svg>
