<svg width="91" height="15" viewBox="0 0 91 15" fill="none" xmlns="http://www.w3.org/2000/svg">
<path fill-rule="evenodd" clip-rule="evenodd" d="M14.9609 5.66832C14.8627 5.35138 14.5933 5.12627 14.2745 5.09629L9.94515 4.68608L8.23319 0.504793C8.10695 0.198358 7.81947 0 7.50006 0C7.18065 0 6.89317 0.198358 6.76693 0.505509L5.05497 4.68608L0.724884 5.09629C0.406731 5.12698 0.138017 5.35138 0.0392523 5.66832C-0.0595126 5.98526 0.031699 6.3329 0.272374 6.55204L3.54489 9.54688L2.5799 13.9825C2.50929 14.3087 2.6306 14.6458 2.88993 14.8414C3.02932 14.9465 3.1924 15 3.35686 15C3.49865 15 3.63931 14.9601 3.76554 14.8813L7.50006 12.5522L11.2332 14.8813C11.5064 15.0528 11.8507 15.0371 12.1095 14.8414C12.3689 14.6452 12.4901 14.308 12.4195 13.9825L11.4545 9.54688L14.7271 6.55263C14.9677 6.3329 15.0596 5.98586 14.9609 5.66832ZM33.9609 5.66832C33.8627 5.35138 33.5933 5.12627 33.2746 5.09629L28.9451 4.68608L27.2332 0.504793C27.107 0.198358 26.8195 0 26.5001 0C26.1806 0 25.8932 0.198358 25.7669 0.505509L24.055 4.68608L19.7249 5.09629C19.4067 5.12698 19.138 5.35138 19.0393 5.66832C18.9405 5.98526 19.0317 6.3329 19.2724 6.55204L22.5449 9.54688L21.5799 13.9825C21.5093 14.3087 21.6306 14.6458 21.8899 14.8414C22.0293 14.9465 22.1924 15 22.3569 15C22.4987 15 22.6393 14.9601 22.7655 14.8813L26.5001 12.5522L30.2332 14.8813C30.5064 15.0528 30.8507 15.0371 31.1095 14.8414C31.3689 14.6452 31.4901 14.308 31.4195 13.9825L30.4545 9.54688L33.7271 6.55263C33.9677 6.3329 34.0596 5.98586 33.9609 5.66832ZM52.2746 5.09629C52.5933 5.12627 52.8627 5.35138 52.9609 5.66832C53.0596 5.98586 52.9677 6.3329 52.7271 6.55263L49.4545 9.54688L50.4195 13.9825C50.4901 14.308 50.3689 14.6452 50.1095 14.8414C49.8507 15.0371 49.5064 15.0528 49.2332 14.8813L45.5001 12.5522L41.7655 14.8813C41.6393 14.9601 41.4987 15 41.3569 15C41.1924 15 41.0293 14.9465 40.8899 14.8414C40.6306 14.6458 40.5093 14.3087 40.5799 13.9825L41.5449 9.54688L38.2724 6.55204C38.0317 6.3329 37.9405 5.98526 38.0393 5.66832C38.138 5.35138 38.4067 5.12698 38.7249 5.09629L43.055 4.68608L44.7669 0.505509C44.8932 0.198358 45.1806 0 45.5001 0C45.8195 0 46.107 0.198358 46.2332 0.504793L47.9451 4.68608L52.2746 5.09629ZM71.9609 5.66832C71.8627 5.35138 71.5933 5.12627 71.2746 5.09629L66.9451 4.68608L65.2332 0.504793C65.1069 0.198358 64.8195 0 64.5001 0C64.1806 0 63.8932 0.198358 63.7669 0.505509L62.055 4.68608L57.7249 5.09629C57.4067 5.12698 57.138 5.35138 57.0393 5.66832C56.9405 5.98526 57.0317 6.3329 57.2724 6.55204L60.5449 9.54688L59.5799 13.9825C59.5093 14.3087 59.6306 14.6458 59.8899 14.8414C60.0293 14.9465 60.1924 15 60.3569 15C60.4987 15 60.6393 14.9601 60.7655 14.8813L64.5001 12.5522L68.2332 14.8813C68.5064 15.0528 68.8507 15.0371 69.1095 14.8414C69.3689 14.6452 69.4901 14.308 69.4195 13.9825L68.4545 9.54688L71.7271 6.55263C71.9677 6.3329 72.0596 5.98586 71.9609 5.66832ZM90.2746 5.09629C90.5933 5.12627 90.8627 5.35138 90.9609 5.66832C91.0596 5.98586 90.9677 6.3329 90.7271 6.55263L87.4545 9.54688L88.4195 13.9825C88.4901 14.308 88.3689 14.6452 88.1095 14.8414C87.8507 15.0371 87.5064 15.0528 87.2332 14.8813L83.5001 12.5522L79.7655 14.8813C79.6393 14.9601 79.4986 15 79.3569 15C79.1924 15 79.0293 14.9465 78.8899 14.8414C78.6306 14.6458 78.5093 14.3087 78.5799 13.9825L79.5449 9.54688L76.2724 6.55204C76.0317 6.3329 75.9405 5.98526 76.0393 5.66832C76.138 5.35138 76.4067 5.12698 76.7249 5.09629L81.055 4.68608L82.7669 0.505509C82.8932 0.198358 83.1806 0 83.5001 0C83.8195 0 84.1069 0.198358 84.2332 0.504793L85.9451 4.68608L90.2746 5.09629Z" fill="#FFC107"/>
</svg>
