<svg width="18" height="18" viewBox="0 0 18 18" fill="none" xmlns="http://www.w3.org/2000/svg">
<path d="M16.841 8.65001L9.34102 1.15001C9.04102 0.850005 8.62435 0.666672 8.16602 0.666672H2.33268C1.41602 0.666672 0.666016 1.41667 0.666016 2.33334V8.16667C0.666016 8.62501 0.849349 9.04167 1.15768 9.35001L8.65768 16.85C8.95768 17.15 9.37435 17.3333 9.83268 17.3333C10.291 17.3333 10.7077 17.15 11.0077 16.8417L16.841 11.0083C17.1493 10.7083 17.3327 10.2917 17.3327 9.83334C17.3327 9.37501 17.141 8.95001 16.841 8.65001ZM9.83268 15.675L2.33268 8.16667V2.33334H8.16602V2.32501L15.666 9.82501L9.83268 15.675Z" fill="#707070"/>
</svg>
