<svg width="20" height="20" viewBox="0 0 20 20" fill="none" xmlns="http://www.w3.org/2000/svg">
<path d="M11.5162 18.3333H8.48286C8.09129 18.3333 7.75249 18.0608 7.66869 17.6783L7.32953 16.1083C6.87707 15.9101 6.44805 15.6622 6.05036 15.3692L4.51953 15.8567C4.14619 15.9757 3.74035 15.8186 3.54453 15.4792L2.02453 12.8533C1.83085 12.5138 1.89757 12.0854 2.18536 11.8208L3.37286 10.7375C3.31886 10.2467 3.31886 9.75156 3.37286 9.26082L2.18536 8.17999C1.89715 7.9153 1.8304 7.48642 2.02453 7.14666L3.54119 4.51916C3.73701 4.17974 4.14286 4.0226 4.51619 4.14166L6.04703 4.62916C6.25041 4.47845 6.46214 4.33934 6.68119 4.21249C6.89148 4.0939 7.10789 3.98653 7.32953 3.89082L7.66953 2.32249C7.75292 1.93996 8.09135 1.66707 8.48286 1.66666H11.5162C11.9077 1.66707 12.2461 1.93996 12.3295 2.32249L12.6729 3.89166C12.9068 3.99459 13.1347 4.11089 13.3554 4.23999C13.5611 4.359 13.7601 4.48948 13.9512 4.63082L15.4829 4.14332C15.8559 4.02471 16.2613 4.18179 16.457 4.52082L17.9737 7.14832C18.1674 7.48789 18.1006 7.91625 17.8129 8.18082L16.6254 9.26416C16.6794 9.7549 16.6794 10.2501 16.6254 10.7408L17.8129 11.8242C18.1006 12.0887 18.1674 12.5171 17.9737 12.8567L16.457 15.4842C16.2613 15.8232 15.8559 15.9803 15.4829 15.8617L13.9512 15.3742C13.7574 15.5169 13.556 15.649 13.3479 15.77C13.1294 15.8966 12.904 16.0109 12.6729 16.1125L12.3295 17.6783C12.2458 18.0605 11.9075 18.333 11.5162 18.3333ZM6.34953 13.5242L7.03286 14.0242C7.1869 14.1376 7.34745 14.242 7.51369 14.3367C7.67011 14.4272 7.83116 14.5096 7.99619 14.5833L8.77369 14.9242L9.15453 16.6667H10.8462L11.227 14.9233L12.0045 14.5825C12.3439 14.4328 12.6661 14.2467 12.9654 14.0275L13.6495 13.5275L15.3504 14.0692L16.1962 12.6042L14.877 11.4017L14.9704 10.5583C15.0114 10.1895 15.0114 9.81719 14.9704 9.44832L14.877 8.60499L16.197 7.39999L15.3504 5.93416L13.6495 6.47582L12.9654 5.97582C12.666 5.75558 12.3439 5.56812 12.0045 5.41666L11.227 5.07582L10.8462 3.33332H9.15453L8.77203 5.07666L7.99619 5.41666C7.83103 5.48919 7.66996 5.5707 7.51369 5.66082C7.34847 5.75526 7.18877 5.85904 7.03536 5.97166L6.35119 6.47166L4.65119 5.92999L3.80369 7.39999L5.12286 8.60082L5.02953 9.44499C4.98853 9.81385 4.98853 10.1861 5.02953 10.555L5.12286 11.3983L3.80369 12.6008L4.64953 14.0658L6.34953 13.5242ZM9.99619 13.3333C8.15524 13.3333 6.66286 11.8409 6.66286 9.99999C6.66286 8.15904 8.15524 6.66666 9.99619 6.66666C11.8371 6.66666 13.3295 8.15904 13.3295 9.99999C13.3272 11.84 11.8362 13.331 9.99619 13.3333ZM9.99619 8.33332C9.08569 8.33425 8.34443 9.0657 8.33138 9.97611C8.31834 10.8865 9.03833 11.6389 9.94843 11.6659C10.8585 11.6929 11.6219 10.9846 11.6629 10.075V10.4083V9.99999C11.6629 9.07952 10.9167 8.33332 9.99619 8.33332Z" fill="#707070"/>
</svg>
