<svg width="16" height="19" viewBox="0 0 16 19" fill="none" xmlns="http://www.w3.org/2000/svg">
<path d="M11.1673 10C8.86732 10 7.00065 11.8667 7.00065 14.1667C7.00065 16.4667 8.86732 18.3333 11.1673 18.3333C13.4673 18.3333 15.334 16.4667 15.334 14.1667C15.334 11.8667 13.4673 10 11.1673 10ZM12.5423 16.125L10.7507 14.3333V11.6667H11.584V13.9917L13.1257 15.5333L12.5423 16.125ZM12.0007 2.5H9.35065C9.00065 1.53334 8.08398 0.833336 7.00065 0.833336C5.91732 0.833336 5.00065 1.53334 4.65065 2.5H2.00065C1.08398 2.5 0.333984 3.25 0.333984 4.16667V16.6667C0.333984 17.5833 1.08398 18.3333 2.00065 18.3333H7.09232C6.60065 17.8583 6.20065 17.2917 5.90898 16.6667H2.00065V4.16667H3.66732V6.66667H10.334V4.16667H12.0007V8.4C12.5923 8.48334 13.1507 8.65834 13.6673 8.9V4.16667C13.6673 3.25 12.9173 2.5 12.0007 2.5ZM7.00065 4.16667C6.54232 4.16667 6.16732 3.79167 6.16732 3.33334C6.16732 2.875 6.54232 2.5 7.00065 2.5C7.45898 2.5 7.83398 2.875 7.83398 3.33334C7.83398 3.79167 7.45898 4.16667 7.00065 4.16667Z" fill="#707070"/>
</svg>
