<svg width="14" height="18" viewBox="0 0 14 18" fill="none" xmlns="http://www.w3.org/2000/svg">
<path d="M12.0007 4H10.334C10.334 2.15833 8.84232 0.666664 7.00065 0.666664C5.15898 0.666664 3.66732 2.15833 3.66732 4H2.00065C1.08398 4 0.333984 4.75 0.333984 5.66666V15.6667C0.333984 16.5833 1.08398 17.3333 2.00065 17.3333H12.0007C12.9173 17.3333 13.6673 16.5833 13.6673 15.6667V5.66666C13.6673 4.75 12.9173 4 12.0007 4ZM7.00065 2.33333C7.91732 2.33333 8.66732 3.08333 8.66732 4H5.33398C5.33398 3.08333 6.08398 2.33333 7.00065 2.33333ZM12.0007 15.6667H2.00065V5.66666H3.66732V7.33333C3.66732 7.79166 4.04232 8.16666 4.50065 8.16666C4.95898 8.16666 5.33398 7.79166 5.33398 7.33333V5.66666H8.66732V7.33333C8.66732 7.79166 9.04232 8.16666 9.50065 8.16666C9.95898 8.16666 10.334 7.79166 10.334 7.33333V5.66666H12.0007V15.6667Z" fill="#707070"/>
</svg>
