<svg width="18" height="16" viewBox="0 0 18 16" fill="none" xmlns="http://www.w3.org/2000/svg">
<path d="M17.2507 5.40833L16.3757 1.76667C16.1924 1.01667 15.5424 0.5 14.7841 0.5H3.20907C2.45907 0.5 1.80074 1.025 1.62574 1.76667L0.750738 5.40833C0.550738 6.25833 0.734071 7.125 1.2674 7.80833C1.33407 7.9 1.42574 7.96667 1.50074 8.05V13.8333C1.50074 14.75 2.25074 15.5 3.1674 15.5H14.8341C15.7507 15.5 16.5007 14.75 16.5007 13.8333V8.05C16.5757 7.975 16.6674 7.9 16.7341 7.81667C17.2674 7.13333 17.4591 6.25833 17.2507 5.40833ZM14.7591 2.15833L15.6341 5.8C15.7174 6.15 15.6424 6.5 15.4257 6.775C15.3091 6.925 15.0591 7.16667 14.6424 7.16667C14.1341 7.16667 13.6924 6.75833 13.6341 6.21667L13.1507 2.16667L14.7591 2.15833ZM9.83407 2.16667H11.4674L11.9174 5.93333C11.9591 6.25833 11.8591 6.58333 11.6424 6.825C11.4591 7.04167 11.1924 7.16667 10.8507 7.16667C10.2924 7.16667 9.83407 6.675 9.83407 6.075V2.16667ZM6.07574 5.93333L6.53407 2.16667H8.1674V6.075C8.1674 6.675 7.70907 7.16667 7.0924 7.16667C6.80907 7.16667 6.55074 7.04167 6.35074 6.825C6.1424 6.58333 6.0424 6.25833 6.07574 5.93333ZM2.3674 5.8L3.20907 2.16667H4.85074L4.3674 6.21667C4.30074 6.75833 3.8674 7.16667 3.35907 7.16667C2.95074 7.16667 2.6924 6.925 2.58407 6.775C2.35907 6.50833 2.28407 6.15 2.3674 5.8ZM3.1674 13.8333V8.80833C3.23407 8.81667 3.2924 8.83333 3.35907 8.83333C4.08407 8.83333 4.7424 8.53333 5.22574 8.04167C5.72574 8.54167 6.3924 8.83333 7.15074 8.83333C7.87574 8.83333 8.52574 8.53333 9.00907 8.05833C9.50074 8.53333 10.1674 8.83333 10.9174 8.83333C11.6174 8.83333 12.2841 8.54167 12.7841 8.04167C13.2674 8.53333 13.9257 8.83333 14.6507 8.83333C14.7174 8.83333 14.7757 8.81667 14.8424 8.80833V13.8333H3.1674Z" fill="#707070"/>
</svg>
