<svg width="20" height="20" viewBox="0 0 20 20" fill="none" xmlns="http://www.w3.org/2000/svg">
<path d="M1.66667 4.99984H0V9.1665H0.00833333L0 16.6665C0 17.5832 0.75 18.3332 1.66667 18.3332H16.6667V16.6665H1.66667V4.99984ZM5.83333 12.4998H17.5L14.5833 8.74984L12.5 11.2582L9.58333 7.49984L5.83333 12.4998ZM18.3333 3.33317H11.6667L10 1.6665H5C4.08333 1.6665 3.34167 2.4165 3.34167 3.33317L3.33333 13.3332C3.33333 14.2498 4.08333 14.9998 5 14.9998H18.3333C19.25 14.9998 20 14.2498 20 13.3332V4.99984C20 4.08317 19.25 3.33317 18.3333 3.33317ZM18.3333 13.3332H5V3.33317H9.30833L10.4833 4.50817L10.975 4.99984H18.3333V13.3332Z" fill="#707070"/>
</svg>
